<svg xmlns="http://www.w3.org/2000/svg" xmlns:xlink="http://www.w3.org/1999/xlink" version="1.1" width="1000" height="1000" viewBox="0 0 1000 1000" xml:space="preserve">
<desc>Created with Fabric.js 3.5.0</desc>
<defs>
</defs>
<rect x="0" y="0" width="100%" height="100%" fill="#ffffff"/>
<g transform="matrix(1.1133 0 0 1.14 503.762 321.5565)" id="312012">
<g style="" vector-effect="non-scaling-stroke">
		<g transform="matrix(0.625 0 0 0.625 -0.9375 159.0625)">
<path style="stroke: none; stroke-width: 1; stroke-dasharray: none; stroke-linecap: butt; stroke-dashoffset: 0; stroke-linejoin: miter; stroke-miterlimit: 4; is-custom-font: none; font-file-url: none; fill: rgb(5,58,148); fill-rule: nonzero; opacity: 1;" transform=" translate(-74.5, -679.5)" d="m 0 0 h 150 v 2 h 14 l 9 1 l 1 1 l 24 1 l 1 5 h 15 l 9 2 l 11 1 l 2 4 l 13 1 l 9 2 l 7 1 l 1 4 l 9 1 l 13 3 l 2 3 l 21 5 l 1 3 l 8 1 l 12 4 l 1 2 l 16 5 l 2 3 l 14 5 l 3 3 l 15 5 l 3 3 l 10 5 l 1 2 l 13 4 l 5 5 l 9 4 l 2 3 l 10 4 l 4 4 l 3 2 l 6 2 l 4 4 l 7 4 v 3 l 10 3 l 6 5 l 7 4 l 1 3 l 9 5 l 3 5 l 7 2 v 2 h -2 v 2 l 5 1 l 5 3 l 1 3 l 9 5 l 3 5 l 5 3 l 3 3 l 7 4 l 3 5 l 5 3 l 3 5 l 4 2 l 3 5 l 5 3 l 3 5 l 16 16 l 7 10 l 15 15 l 6 11 l 4 2 l 4 6 l 4 4 l 3 5 l 5 6 l 1 3 l 4 1 v 2 h -2 v 2 l 4 1 l 5 10 l 8 8 v 2 h -2 l 1 2 l 4 2 v 6 l 5 1 l 4 12 l 4 5 l 2 5 l 5 1 v 4 l -2 3 l 5 1 l 1 6 l 4 1 l 1 7 l 2 4 v 4 l 5 1 l 1 6 l 2 7 l 4 2 l 4 14 l 4 5 l 1 8 l 2 4 v 4 l 5 2 l 1 8 l 2 6 v 2 l 4 1 l 2 12 l 2 9 l 4 2 l 1 11 l 2 5 l 2 7 l 3 4 l 1 10 l 1 1 l 1 13 l 4 5 l 2 17 l 1 2 l 1 13 l 4 4 v 22 h 2 l 1 4 v 22 h 2 v 151 l -1 1 l -1 20 l -2 6 l -1 21 l -4 4 l -1 14 l -1 1 l -2 17 l -3 3 l -2 15 l -1 1 l -1 11 l -4 4 l -2 10 l -1 2 l -1 10 l -4 2 l -2 10 l -2 11 l -4 1 l -1 7 l -2 9 l -2 2 h -3 l -1 8 l -1 1 l -1 8 l -4 5 l -4 13 l -4 1 l -1 7 l -3 8 l -3 1 l -4 13 l -2 2 h -3 v 6 l -5 1 l 3 6 l -3 2 h -3 l -2 6 l -4 5 l -2 7 l -3 5 h -4 v 7 l -5 1 v 2 h 2 l -2 4 l -7 8 l -4 8 l -4 1 v 2 h 2 l -1 3 h -4 l -1 5 l -6 7 l -6 8 l -3 5 l -5 1 l -2 6 l -6 9 l -16 16 l -3 5 l -18 18 l -1 4 l -5 2 l -2 5 l -6 3 l -2 5 l -6 3 l -2 5 l -5 2 l -4 2 l -1 3 l -6 3 l -2 5 l -9 4 l -1 4 l -5 2 l -5 1 v 2 h 2 l -1 3 l -7 2 l -2 5 l -9 4 l -2 4 l -8 4 l -1 3 l -8 3 l -4 2 l -1 3 l -9 4 l -2 4 l -7 2 l -4 2 l -2 4 l -7 2 l -4 2 l -1 3 l -11 4 h -2 v 4 l -14 4 l -2 4 l -7 2 l -4 2 l -1 3 l -9 2 l -8 3 l -2 3 l -13 4 l -4 4 l -8 2 l -6 2 l -2 3 l -15 4 h -4 l -1 4 l -22 4 l -2 4 l -10 1 l -6 2 h -5 l -1 4 l -14 2 l -1 1 l -15 1 l -1 4 l -21 3 l -14 1 v 3 l -3 1 l -21 1 l -2 1 l -22 2 l -1 1 h -151 l -1 -1 l -22 -2 l -21 -2 l -5 -2 v -2 l -12 -1 l -20 -3 l -4 -2 v -2 h -7 l -22 -4 l -1 -3 l -17 -4 l -6 -2 l -8 -3 l -14 -4 l -7 -3 l -14 -5 l -18 -8 l -11 -5 l -5 -2 l -1 -2 l -16 -5 l -1 -4 l -5 -1 l -8 -4 v -2 l -5 -1 l -10 -4 v -3 l -5 -1 l -8 -4 v -3 l -5 -1 l -8 -4 v -3 l -5 -1 l -7 -3 l -3 -3 l -8 -5 v -3 l -5 -1 l -7 -3 l -1 -4 l -5 -1 l -5 -3 l -1 -3 l -9 -4 l -2 -5 l -8 -3 l 2 -4 l -5 -1 l -5 -3 l -1 -3 l -9 -4 l -2 -5 l -5 -2 l -1 -5 l -5 -1 l -5 -3 l -3 -5 l -4 -2 l -4 -6 l -4 -2 l -3 -5 l -5 -3 l -3 -5 l -16 -16 l -5 -8 l -17 -17 l -3 -6 v -3 h -2 l -1 -2 l -4 -2 l -4 -6 l -4 -5 l -5 -6 v -2 h -2 l -1 -5 l -4 -1 v -2 h 2 v -2 l -5 -1 l -5 -10 l -8 -8 l 2 -4 l -4 -1 l -1 -7 h -4 l -3 -6 l -2 -7 l -3 -3 l -3 -5 v -2 l -5 -1 l 1 -5 l 1 -2 l -5 -1 l -1 -6 l -4 -2 l -2 -7 l -1 -6 l -4 -1 l -4 -14 l -4 -2 l -2 -7 l -3 -8 l -3 -5 l -1 -7 l -2 -4 v -4 l -4 -1 l -4 -16 l -4 -2 l -2 -12 l -2 -9 l -3 -1 l -1 -2 l -1 -10 l -2 -7 l -2 -5 l -3 -5 l -1 -9 l -1 -2 l -1 -13 l -4 -4 l -1 -15 l -2 -4 l -1 -13 l -4 -4 l -1 -22 l -1 -1 l -2 -25 l -1 -1 v -149 l 2 -3 l 1 -23 l 1 -1 l 1 -21 l 4 -5 l 1 -12 l 2 -4 l 1 -16 l 4 -4 l 1 -13 l 2 -7 l 1 -7 l 4 -5 l 4 -20 l 4 -1 l 1 -10 l 3 -13 l 3 -1 l 4 -16 l 4 -1 l 1 -6 l 2 -10 l 4 -5 l 4 -13 l 4 -3 l 4 -13 l 4 -1 l 1 -7 l 3 -8 l 3 -1 l 2 -7 h 4 l -2 -3 v -4 l 6 -3 l 6 -10 l 3 -9 l 2 -2 h 3 l 1 -7 l 3 -1 l 1 -2 h -2 l 1 -3 h 2 l 1 -3 h 2 v -2 h 2 l 2 -5 l 3 -7 l 4 -2 l -1 -3 l 3 -1 l 4 -6 l 9 -12 l 3 -3 l 2 -4 l 5 -3 l 5 -10 l 18 -18 l 4 -6 l 6 -7 h 2 l 2 -4 l 15 -15 l 1 -3 l 5 -3 l 3 -5 l 5 -3 l 4 -5 l 5 -3 h 3 l 1 -4 l 6 -4 l 2 -4 l 8 -4 l 5 -5 l 6 -2 l -2 -4 l 3 -1 l 4 -1 l 4 -6 l 8 -4 l 5 -5 l 6 -3 l 1 -3 l 8 -3 l 4 -1 l 1 -4 l 9 -4 l 2 -4 l 6 -2 l 5 -1 l 1 -4 l 10 -4 h 2 l 1 -4 l 11 -4 l 2 -4 l 7 -2 l 1 -1 h 6 l 1 -4 l 10 -4 h 2 l 1 -4 l 9 -2 l 7 -2 l 2 -4 l 7 -2 l 1 -1 h 6 l 1 -4 l 1 -1 l 8 -1 l 5 -2 h 3 l 1 -4 l 9 -2 l 1 -1 l 9 -1 l 2 -4 l 11 -2 l 3 -1 h 8 v -4 l 2 -1 l 9 -1 l 8 -2 h 4 v -4 l 15 -2 l 1 -1 l 15 -1 v -4 l 17 -2 l 5 -1 h 13 l 1 -4 l 6 -1 l 18 -1 l 1 -1 l 23 -2 z" stroke-linecap="round"/>
</g>
		<g transform="matrix(0.625 0 0 0.625 -3.4375 159.0625)">
<path style="stroke: none; stroke-width: 1; stroke-dasharray: none; stroke-linecap: butt; stroke-dashoffset: 0; stroke-linejoin: miter; stroke-miterlimit: 4; is-custom-font: none; font-file-url: none; fill: rgb(9,115,252); fill-rule: nonzero; opacity: 1;" transform=" translate(-35.5, -642.5)" d="m 0 0 h 75 l 25 1 l 40 5 l 44 8 l 32 8 l 52 16 l 21 8 l 23 10 l 35 17 l 23 13 l 24 15 l 21 14 l 18 13 l 13 11 l 22 18 l 15 13 l 35 35 l 9 11 l 11 12 l 9 11 l 8 10 l 10 13 l 15 22 l 7 10 l 14 24 l 10 17 l 5 10 l 8 15 l 7 16 l 8 19 l 11 29 l 6 16 l 1 2 v 6 l 3 5 v 6 l 2 2 l 2 7 l 1 5 l -1 2 l 3 1 v 12 l 3 1 v 11 l 2 1 l 1 7 l 2 2 l 1 17 l 1 1 l 1 14 l -2 1 l -10 -8 l -11 -9 l -9 -7 l -16 -13 l -7 -6 l -14 -11 l -11 -9 l -20 -16 l -14 -11 l -16 -13 l -10 -8 l -13 -10 l -13 -11 l -13 -10 l -10 -8 l -8 -5 l -5 -3 l -8 -6 l -9 -5 l -5 -1 h -832 l -10 6 l -8 6 l -5 9 v 231 l 8 1 l 26 15 l 25 14 l 6 3 v 2 l 2 1 h -67 l -1 73 l 5 2 l 9 8 l 7 12 l 2 9 v 18 l -3 12 l -7 11 l -7 6 l -5 3 v 135 l 1 12 l 5 10 l 4 2 l 8 5 l 3 3 l 33 16 l 60 28 l 36 17 l 25 12 l 28 13 l 50 24 l 28 13 l 25 12 l 28 13 l 69 33 l 26 12 l 21 10 l 23 11 l 36 17 l 25 12 l 26 12 l 24 12 l 12 5 l 9 5 l 3 2 l -1 4 h -7 l -8 2 l -16 3 l -7 2 l -25 4 l -20 2 l -12 2 l -13 2 h -38 v 2 l -2 1 h -29 l -14 -2 l -35 -1 l -42 -6 l -19 -3 l -17 -3 l -31 -3 l -2 -5 l -10 -3 l -5 -2 l -8 -1 l -6 -4 l -10 -2 l -33 -12 l -24 -10 l -38 -19 l -8 -1 l -6 -5 l -6 -4 l -4 -3 l -11 -6 l -13 -7 l -11 -8 l -11 -7 l -14 -10 l -10 -8 l -8 -6 l -8 -7 l -9 -7 l -8 -8 l -15 -10 l -28 -28 l -9 -11 l -7 -7 l -7 -8 l -7 -7 l -13 -19 l -14 -19 l -18 -27 l -13 -22 l -12 -22 l -10 -19 l -12 -27 l -13 -34 l -9 -25 l -8 -28 l -9 -43 l -6 -37 l -3 -24 l -1 -17 l -1 -1 v -91 l 1 -1 l 2 -27 l 1 -2 l 1 -15 l 2 -9 l 1 -8 l 1 -1 l 1 -15 l 2 -5 l 1 -9 l 4 -15 l 3 -14 l 8 -28 l 8 -22 l 13 -34 l 9 -22 l 13 -25 l 11 -18 l 13 -22 l 8 -13 l 7 -10 l 11 -16 l 9 -12 l 10 -13 l 11 -13 l 6 -8 l 8 -10 l 7 -8 l 12 -12 l 11 -9 l 12 -12 l 8 -7 l 11 -10 l 11 -9 l 10 -8 l 36 -26 l 22 -14 l 24 -14 l 26 -14 l 28 -13 l 30 -13 l 36 -12 l 26 -8 l 35 -8 l 42 -7 l 16 -2 z" stroke-linecap="round"/>
</g>
		<g transform="matrix(0.625 0 0 0.625 35.9375 271.25)">
<path style="stroke: none; stroke-width: 1; stroke-dasharray: none; stroke-linecap: butt; stroke-dashoffset: 0; stroke-linejoin: miter; stroke-miterlimit: 4; is-custom-font: none; font-file-url: none; fill: rgb(248,162,12); fill-rule: nonzero; opacity: 1;" transform=" translate(-499.5, -160)" d="m 0 0 h 408 l 1 1 v 31 h 73 l 1 -32 h 399 v 71 l 13 -5 l 10 -2 h 21 l 15 3 l 12 5 l 12 7 l 14 13 l 9 13 l 7 14 l 4 16 l 1 9 v 16 l -2 14 l -6 18 l -9 15 l -11 12 l -8 7 l -14 8 l -14 5 l -14 2 l -17 -1 l -11 -2 l -12 -4 l -4 -2 v 2 h 3 l 1 2 v 63 l -4 8 l -7 6 l -12 7 h -837 l -13 -8 l -5 -5 l -3 -4 l -1 -3 l -1 -12 v -135 l 11 -8 l 7 -10 l 3 -8 l 1 -6 v -18 l -2 -9 l -7 -12 l -8 -7 l -5 -3 v -71 z" stroke-linecap="round"/>
</g>
		<g transform="matrix(0.625 0 0 0.625 -0.625 68.75)">
<path style="stroke: none; stroke-width: 1; stroke-dasharray: none; stroke-linecap: butt; stroke-dashoffset: 0; stroke-linejoin: miter; stroke-miterlimit: 4; is-custom-font: none; font-file-url: none; fill: rgb(254,230,12); fill-rule: nonzero; opacity: 1;" transform=" translate(-418, -126)" d="m 0 0 h 832 l 9 3 l 11 7 l 5 5 l 2 6 l 1 7 v 44 l -1 179 l -399 1 l -1 -23 l -3 -8 l -6 -8 l -10 -5 l -6 -2 h -22 l -11 4 l -5 4 h -2 l -2 4 l -3 3 l -2 5 l -1 25 l -409 1 l -1 -1 v -229 l 6 -10 l 11 -8 z" stroke-linecap="round"/>
</g>
		<g transform="matrix(0.625 0 0 0.625 28.125 -34.6875)">
<path style="stroke: none; stroke-width: 1; stroke-dasharray: none; stroke-linecap: butt; stroke-dashoffset: 0; stroke-linejoin: miter; stroke-miterlimit: 4; is-custom-font: none; font-file-url: none; fill: rgb(5,58,148); fill-rule: nonzero; opacity: 1;" transform=" translate(-155, -39.5)" d="m 0 0 h 217 l 8 3 l 7 6 l 7 3 l 13 7 l 21 14 l 17 11 l 21 13 l 17 12 l 11 7 l 2 3 h -336 l -4 -4 l -18 -11 l -11 -8 l -3 -3 v -8 l 4 -16 l 9 -15 l 10 -10 z" stroke-linecap="round"/>
</g>
		<g transform="matrix(0.625 0 0 0.625 101.25 266.25)">
<path style="stroke: none; stroke-width: 1; stroke-dasharray: none; stroke-linecap: butt; stroke-dashoffset: 0; stroke-linejoin: miter; stroke-miterlimit: 4; is-custom-font: none; font-file-url: none; fill: rgb(248,163,12); fill-rule: nonzero; opacity: 1;" transform=" translate(-7, -73)" d="m 0 0 h 13 l 16 4 l 14 7 l 12 11 l 6 7 l 6 10 l 5 15 l 2 10 v 19 l -3 15 l -6 14 l -8 11 l -7 8 l -11 7 l -11 5 l -12 3 h -19 l -12 -3 l -14 -7 l -12 -11 l -9 -12 l -6 -13 l -3 -12 l -1 -8 v -13 l 3 -17 l 5 -12 l 7 -12 l 12 -12 l 11 -7 l 13 -5 z" stroke-linecap="round"/>
</g>
		<g transform="matrix(0.625 0 0 0.625 -201.25 266.25)">
<path style="stroke: none; stroke-width: 1; stroke-dasharray: none; stroke-linecap: butt; stroke-dashoffset: 0; stroke-linejoin: miter; stroke-miterlimit: 4; is-custom-font: none; font-file-url: none; fill: rgb(248,163,12); fill-rule: nonzero; opacity: 1;" transform=" translate(-6, -73)" d="m 0 0 h 12 l 16 4 l 14 7 l 12 10 l 8 11 l 7 14 l 4 17 v 21 l -3 14 l -5 12 l -7 11 l -9 10 l -14 9 l -15 5 l -5 1 h -18 l -10 -2 l -12 -5 l -11 -8 l -7 -7 l -9 -13 l -5 -12 l -3 -12 l -1 -18 l 2 -14 l 5 -15 l 7 -12 l 9 -10 l 7 -6 l 10 -6 l 15 -5 z" stroke-linecap="round"/>
</g>
		<g transform="matrix(0.625 0 0 0.625 306.875 266.25)">
<path style="stroke: none; stroke-width: 1; stroke-dasharray: none; stroke-linecap: butt; stroke-dashoffset: 0; stroke-linejoin: miter; stroke-miterlimit: 4; is-custom-font: none; font-file-url: none; fill: rgb(5,58,148); fill-rule: nonzero; opacity: 1;" transform=" translate(-23, -73)" d="m 0 0 h 13 l 13 3 l 16 8 l 11 9 l 8 10 l 8 16 l 4 14 l 1 17 l -2 14 l -5 15 l -6 11 l -9 11 l -12 9 l -10 5 l -9 3 l -5 1 h -19 l -13 -3 l -11 -6 l -1 -5 v -121 l 8 -5 l 10 -4 z" stroke-linecap="round"/>
</g>
		<g transform="matrix(0.625 0 0 0.625 -103.125 266.5625)">
<path style="stroke: none; stroke-width: 1; stroke-dasharray: none; stroke-linecap: butt; stroke-dashoffset: 0; stroke-linejoin: miter; stroke-miterlimit: 4; is-custom-font: none; font-file-url: none; fill: rgb(254,254,253); fill-rule: nonzero; opacity: 1;" transform=" translate(-51, -85.5)" d="m 0 0 h 59 l 16 4 l 11 7 l 7 8 l 5 12 l 1 4 v 20 l -4 13 l -8 11 l -8 6 l -10 4 l -11 2 l -12 1 l 6 9 l 26 36 l 11 15 l 12 17 l 1 2 h -20 l -10 -13 l -13 -19 l -12 -16 l -11 -16 l -11 -15 h -8 l -1 79 h -15 l -1 -12 z" stroke-linecap="round"/>
</g>
		<g transform="matrix(0.625 0 0 0.625 296.5625 266.5625)">
<path style="stroke: none; stroke-width: 1; stroke-dasharray: none; stroke-linecap: butt; stroke-dashoffset: 0; stroke-linejoin: miter; stroke-miterlimit: 4; is-custom-font: none; font-file-url: none; fill: rgb(253,253,251); fill-rule: nonzero; opacity: 1;" transform=" translate(-11.5, -88.5)" d="m 0 0 h 21 l 15 3 l 12 5 l 12 7 l 14 13 l 9 13 l 7 14 l 4 16 l 1 9 v 16 l -2 14 l -6 18 l -9 15 l -11 12 l -8 7 l -14 8 l -14 5 l -14 2 l -17 -1 l -11 -2 l -12 -4 l -15 -9 l -9 -8 l -11 -14 l -8 -15 l -5 -17 l -1 -8 v -19 l 3 -17 l 6 -15 l 7 -13 l 11 -13 l 11 -9 l 15 -8 l 13 -4 z m 5 15 l -16 4 l -11 6 l -1 1 v 125 l 8 5 l 11 4 l 6 1 h 19 l 11 -3 l 9 -4 l 11 -7 l 8 -7 l 9 -13 l 5 -11 l 4 -15 l 1 -16 l -2 -15 l -5 -14 l -6 -11 l -9 -11 l -10 -8 l -16 -8 l -13 -3 z" stroke-linecap="round"/>
</g>
		<g transform="matrix(0.625 0 0 0.625 -0.625 -42.5)">
<path style="stroke: none; stroke-width: 1; stroke-dasharray: none; stroke-linecap: butt; stroke-dashoffset: 0; stroke-linejoin: miter; stroke-miterlimit: 4; is-custom-font: none; font-file-url: none; fill: rgb(254,228,12); fill-rule: nonzero; opacity: 1;" transform=" translate(-109, -27)" d="m 0 0 h 217 l 8 3 l 10 9 l 7 12 l 4 12 l 3 16 l -1 2 h -36 l -3 -3 l -9 -11 l -4 -4 l -4 -2 h -166 l -7 4 l -7 8 l -2 3 h -2 l -2 5 h -36 l -1 -1 v -8 l 4 -16 l 9 -15 l 10 -10 z" stroke-linecap="round"/>
</g>
		<g transform="matrix(0.625 0 0 0.625 -293.4375 266.25)">
<path style="stroke: none; stroke-width: 1; stroke-dasharray: none; stroke-linecap: butt; stroke-dashoffset: 0; stroke-linejoin: miter; stroke-miterlimit: 4; is-custom-font: none; font-file-url: none; fill: rgb(253,253,252); fill-rule: nonzero; opacity: 1;" transform=" translate(-37.5, -86)" d="m 0 0 h 27 l 20 1 l 14 3 l 8 4 l 9 8 l 7 12 l 2 9 v 18 l -3 12 l -7 11 l -7 6 l -10 5 l -13 3 l -15 1 h -28 l 1 3 l -1 76 h -15 l -1 -2 v -169 z" stroke-linecap="round"/>
</g>
		<g transform="matrix(0.625 0 0 0.625 -201.25 266.25)">
<path style="stroke: none; stroke-width: 1; stroke-dasharray: none; stroke-linecap: butt; stroke-dashoffset: 0; stroke-linejoin: miter; stroke-miterlimit: 4; is-custom-font: none; font-file-url: none; fill: rgb(254,254,253); fill-rule: nonzero; opacity: 1;" transform=" translate(-10, -88)" d="m 0 0 h 19 l 15 3 l 13 5 l 11 7 l 10 8 l 7 8 l 7 10 l 6 13 l 4 14 l 1 6 v 29 l -4 17 l -8 16 l -7 10 l -9 10 l -12 9 l -14 7 l -15 4 h -27 l -16 -4 l -16 -8 l -14 -12 l -11 -14 l -8 -16 l -4 -15 l -1 -6 v -22 l 3 -16 l 6 -16 l 9 -15 l 12 -13 l 13 -9 l 10 -5 l 13 -4 z m 4 15 l -16 4 l -12 6 l -9 7 l -8 8 l -8 13 l -5 13 l -2 9 l -1 17 l 2 15 l 5 15 l 6 10 l 8 10 l 10 9 l 14 7 l 6 2 l 7 1 h 18 l 15 -4 l 12 -6 l 10 -8 l 9 -11 l 8 -16 l 3 -11 l 1 -6 v -21 l -4 -17 l -8 -16 l -10 -12 l -11 -8 l -14 -7 l -14 -3 z" stroke-linecap="round"/>
</g>
		<g transform="matrix(0.625 0 0 0.625 101.25 266.5625)">
<path style="stroke: none; stroke-width: 1; stroke-dasharray: none; stroke-linecap: butt; stroke-dashoffset: 0; stroke-linejoin: miter; stroke-miterlimit: 4; is-custom-font: none; font-file-url: none; fill: rgb(254,254,253); fill-rule: nonzero; opacity: 1;" transform=" translate(-10, -88.5)" d="m 0 0 h 18 l 16 3 l 16 7 l 12 8 l 13 13 l 9 14 l 5 12 l 4 19 v 25 l -3 15 l -7 17 l -9 13 l -6 7 l -8 7 l -11 7 l -16 7 l -9 2 l -13 1 l -15 -1 l -15 -4 l -16 -8 l -13 -11 l -8 -9 l -8 -13 l -5 -12 l -3 -11 l -1 -7 v -23 l 4 -18 l 6 -15 l 9 -14 l 9 -10 l 11 -9 l 16 -8 l 11 -3 z m 3 15 l -15 4 l -14 7 l -12 11 l -6 7 l -8 15 l -4 15 l -1 8 v 13 l 3 17 l 5 12 l 7 11 l 9 10 l 10 8 l 11 5 l 12 3 h 19 l 15 -4 l 15 -8 l 9 -8 l 10 -14 l 6 -14 l 3 -15 v -19 l -4 -17 l -4 -10 l -8 -12 l -11 -11 l -13 -8 l -15 -5 l -6 -1 z" stroke-linecap="round"/>
</g>
		<g transform="matrix(0.625 0 0 0.625 18.75 266.25)">
<path style="stroke: none; stroke-width: 1; stroke-dasharray: none; stroke-linecap: butt; stroke-dashoffset: 0; stroke-linejoin: miter; stroke-miterlimit: 4; is-custom-font: none; font-file-url: none; fill: rgb(254,254,253); fill-rule: nonzero; opacity: 1;" transform=" translate(-39, -86)" d="m 0 0 h 42 l 37 1 v 17 h -63 v 54 h 61 l 2 1 v 17 h -63 v 82 h -16 l -1 -171 z" stroke-linecap="round"/>
</g>
		<g transform="matrix(0.625 0 0 0.625 -40.9375 266.5625)">
<path style="stroke: none; stroke-width: 1; stroke-dasharray: none; stroke-linecap: butt; stroke-dashoffset: 0; stroke-linejoin: miter; stroke-miterlimit: 4; is-custom-font: none; font-file-url: none; fill: rgb(254,254,253); fill-rule: nonzero; opacity: 1;" transform=" translate(-43.5, -85.5)" d="m 0 0 h 87 v 17 l -35 1 v 152 l -1 1 h -16 l -1 -153 l -34 -1 z" stroke-linecap="round"/>
</g>
		<g transform="matrix(0.625 0 0 0.625 190.9375 266.5625)">
<path style="stroke: none; stroke-width: 1; stroke-dasharray: none; stroke-linecap: butt; stroke-dashoffset: 0; stroke-linejoin: miter; stroke-miterlimit: 4; is-custom-font: none; font-file-url: none; fill: rgb(254,254,253); fill-rule: nonzero; opacity: 1;" transform=" translate(-38.5, -85.5)" d="m 0 0 h 16 l 1 153 h 59 l 1 1 v 17 h -76 l -1 -9 z" stroke-linecap="round"/>
</g>
		<g transform="matrix(0.625 0 0 0.625 -190.625 290.3125)">
<path style="stroke: none; stroke-width: 1; stroke-dasharray: none; stroke-linecap: butt; stroke-dashoffset: 0; stroke-linejoin: miter; stroke-miterlimit: 4; is-custom-font: none; font-file-url: none; fill: rgb(182,124,23); fill-rule: nonzero; opacity: 1;" transform=" translate(63, -68.5)" d="m 0 0 l 2 2 l 1 3 l 3 3 l 7 13 l 2 14 l 1 16 l -3 19 l -4 12 l -7 14 l -10 13 l -11 10 l -14 9 l -13 5 l -16 3 l -13 1 l -13 -2 l -16 -5 l -13 -7 l -6 -5 l -8 -14 l -11 -11 v -2 h 2 l 5 6 l 12 9 l 14 7 l 16 4 h 27 l 15 -4 l 14 -7 l 9 -7 l 8 -7 l 9 -12 l 8 -16 l 4 -13 l 1 -6 v -29 l -2 -11 z" stroke-linecap="round"/>
</g>
		<g transform="matrix(0.625 0 0 0.625 204.0625 276.875)">
<path style="stroke: none; stroke-width: 1; stroke-dasharray: none; stroke-linecap: butt; stroke-dashoffset: 0; stroke-linejoin: miter; stroke-miterlimit: 4; is-custom-font: none; font-file-url: none; fill: rgb(201,131,14); fill-rule: nonzero; opacity: 1;" transform=" translate(44.5, -87)" d="m 0 0 l 7 2 l 3 8 l 2 18 v 89 l 1 32 l -1 16 l -4 5 l -7 2 l -14 -2 l -6 2 l -10 1 l -23 1 h -22 l -14 -2 l -6 -5 l -4 -7 v -2 l -4 -1 l 84 -2 h 17 z" stroke-linecap="round"/>
</g>
		<g transform="matrix(0.625 0 0 0.625 -104.0625 241.5625)">
<path style="stroke: none; stroke-width: 1; stroke-dasharray: none; stroke-linecap: butt; stroke-dashoffset: 0; stroke-linejoin: miter; stroke-miterlimit: 4; is-custom-font: none; font-file-url: none; fill: rgb(249,163,12); fill-rule: nonzero; opacity: 1;" transform=" translate(-32.5, -28.5)" d="m 0 0 h 36 l 14 3 l 9 6 l 5 8 l 2 7 v 10 l -4 10 l -6 7 l -8 4 l -9 2 h -39 l -1 -1 v -55 z" stroke-linecap="round"/>
</g>
		<g transform="matrix(0.625 0 0 0.625 111.25 292.8125)">
<path style="stroke: none; stroke-width: 1; stroke-dasharray: none; stroke-linecap: butt; stroke-dashoffset: 0; stroke-linejoin: miter; stroke-miterlimit: 4; is-custom-font: none; font-file-url: none; fill: rgb(179,123,23); fill-rule: nonzero; opacity: 1;" transform=" translate(66, -63.5)" d="m 0 0 l 1 2 l 4 2 l 2 8 h 2 l 3 12 v 27 l -2 12 l -8 19 l -7 11 l -8 10 l -13 10 l -9 6 l -13 5 l -16 3 h -21 l -15 -4 l -13 -5 l -7 -5 v -2 l -5 -2 l -9 -15 l -10 -10 l 1 -2 l 7 7 l 12 9 l 13 6 l 15 4 l 16 1 l 17 -2 l 14 -5 l 13 -7 l 10 -9 h 2 l 2 -4 l 7 -8 l 7 -12 l 5 -13 l 3 -15 z" stroke-linecap="round"/>
</g>
		<g transform="matrix(0.625 0 0 0.625 -295.625 241.5625)">
<path style="stroke: none; stroke-width: 1; stroke-dasharray: none; stroke-linecap: butt; stroke-dashoffset: 0; stroke-linejoin: miter; stroke-miterlimit: 4; is-custom-font: none; font-file-url: none; fill: rgb(10,116,253); fill-rule: nonzero; opacity: 1;" transform=" translate(-24, -28.5)" d="m 0 0 h 30 l 15 3 l 6 4 l 3 3 v 38 l -9 6 l -11 3 h -39 l -1 -1 v -52 l 1 -3 z" stroke-linecap="round"/>
</g>
		<g transform="matrix(0.625 0 0 0.625 -203.4375 257.5)">
<path style="stroke: none; stroke-width: 1; stroke-dasharray: none; stroke-linecap: butt; stroke-dashoffset: 0; stroke-linejoin: miter; stroke-miterlimit: 4; is-custom-font: none; font-file-url: none; fill: rgb(182,125,23); fill-rule: nonzero; opacity: 1;" transform=" translate(-2.5, -59)" d="m 0 0 h 12 l 16 4 l 14 7 l 12 10 l 8 11 l 4 7 l -1 3 l -6 -10 l -5 -3 l -13 -4 l -11 -4 l -5 -1 h -16 l -16 4 l -10 5 l -9 7 l -6 7 h -2 l -2 4 l -3 5 l -7 20 l -1 11 l -1 29 l 2 6 l -5 -5 l -5 -11 l -4 -15 l -1 -18 l 2 -14 l 5 -15 l 7 -12 l 9 -10 l 7 -6 l 10 -6 l 15 -5 z" stroke-linecap="round"/>
</g>
		<g transform="matrix(0.625 0 0 0.625 98.4375 257.5)">
<path style="stroke: none; stroke-width: 1; stroke-dasharray: none; stroke-linecap: butt; stroke-dashoffset: 0; stroke-linejoin: miter; stroke-miterlimit: 4; is-custom-font: none; font-file-url: none; fill: rgb(183,125,22); fill-rule: nonzero; opacity: 1;" transform=" translate(-2.5, -59)" d="m 0 0 h 13 l 16 4 l 14 7 l 12 11 l 6 7 l 4 7 l -1 2 l -4 -5 v -2 h -2 v -2 l -9 -2 l -21 -7 h -18 l -13 3 l -10 4 l -11 8 l -5 5 h -2 l -2 5 l -4 5 l -5 12 l -3 10 l -1 7 l -1 24 v 9 l 2 6 l -5 -5 l -6 -13 l -3 -12 l -1 -8 v -13 l 3 -17 l 5 -12 l 7 -12 l 12 -12 l 11 -7 l 13 -5 z" stroke-linecap="round"/>
</g>
		<g transform="matrix(0.625 0 0 0.625 265.3125 266.5625)">
<path style="stroke: none; stroke-width: 1; stroke-dasharray: none; stroke-linecap: butt; stroke-dashoffset: 0; stroke-linejoin: miter; stroke-miterlimit: 4; is-custom-font: none; font-file-url: none; fill: rgb(183,124,22); fill-rule: nonzero; opacity: 1;" transform=" translate(14.5, -62.5)" d="m 0 0 h 1 l 1 123 l -2 2 l -11 -9 l -8 -10 l -7 -12 l -4 -13 l -1 -5 v -26 l 4 -16 l 7 -14 l 8 -10 l 10 -9 z" stroke-linecap="round"/>
</g>
		<g transform="matrix(0.625 0 0 0.625 226.5625 266.5625)">
<path style="stroke: none; stroke-width: 1; stroke-dasharray: none; stroke-linecap: butt; stroke-dashoffset: 0; stroke-linejoin: miter; stroke-miterlimit: 4; is-custom-font: none; font-file-url: none; fill: rgb(254,254,253); fill-rule: nonzero; opacity: 1;" transform=" translate(-7.5, -85.5)" d="m 0 0 h 16 v 170 l -1 1 h -15 l -1 -1 v -169 z" stroke-linecap="round"/>
</g>
		<g transform="matrix(0.625 0 0 0.625 -25.9375 275.3125)">
<path style="stroke: none; stroke-width: 1; stroke-dasharray: none; stroke-linecap: butt; stroke-dashoffset: 0; stroke-linejoin: miter; stroke-miterlimit: 4; is-custom-font: none; font-file-url: none; fill: rgb(186,121,12); fill-rule: nonzero; opacity: 1;" transform=" translate(-15.5, -82.5)" d="m 0 0 h 47 v 17 l -2 -1 h -10 l -16 2 l -5 1 l -2 8 l -1 12 v 112 l -2 10 l -3 3 l -5 1 l -6 -2 l -2 -5 l -9 -2 v -1 l 15 -2 v -152 z" stroke-linecap="round"/>
</g>
		<g transform="matrix(0.625 0 0 0.625 22.5 298.4375)">
<path style="stroke: none; stroke-width: 1; stroke-dasharray: none; stroke-linecap: butt; stroke-dashoffset: 0; stroke-linejoin: miter; stroke-miterlimit: 4; is-custom-font: none; font-file-url: none; fill: rgb(172,111,12); fill-rule: nonzero; opacity: 1;" transform=" translate(41, -48.5)" d="m 0 0 h 1 l 2 10 v 8 l -6 -1 l -9 2 l -31 1 l -10 2 l -5 2 l -1 55 l -2 14 l -5 4 l -3 -1 v -5 l -6 -1 l -2 -4 l -8 -1 v -1 l 15 -1 v -82 z" stroke-linecap="round"/>
</g>
		<g transform="matrix(0.625 0 0 0.625 -300.3125 299.375)">
<path style="stroke: none; stroke-width: 1; stroke-dasharray: none; stroke-linecap: butt; stroke-dashoffset: 0; stroke-linejoin: miter; stroke-miterlimit: 4; is-custom-font: none; font-file-url: none; fill: rgb(5,58,148); fill-rule: nonzero; opacity: 1;" transform=" translate(36.5, -52)" d="m 0 0 h 1 v 104 h -1 v -85 l -17 2 l -21 1 l -6 2 l -3 7 l -2 16 v 15 l -1 11 v 8 l -2 9 l -5 2 l -5 -4 l -12 -2 v -1 h 15 v -79 l 43 -2 z" stroke-linecap="round"/>
</g>
		<g transform="matrix(0.625 0 0 0.625 27.5 240)">
<path style="stroke: none; stroke-width: 1; stroke-dasharray: none; stroke-linecap: butt; stroke-dashoffset: 0; stroke-linejoin: miter; stroke-miterlimit: 4; is-custom-font: none; font-file-url: none; fill: rgb(176,114,12); fill-rule: nonzero; opacity: 1;" transform=" translate(27, -28)" d="m 0 0 l 9 3 l 1 3 v 8 l -2 3 l -6 2 l -24 2 h -13 l -11 1 l -5 5 l -1 6 v 21 l 1 2 h -13 v -54 h 64 z" stroke-linecap="round"/>
</g>
		<g transform="matrix(0.625 0 0 0.625 -86.5625 259.0625)">
<path style="stroke: none; stroke-width: 1; stroke-dasharray: none; stroke-linecap: butt; stroke-dashoffset: 0; stroke-linejoin: miter; stroke-miterlimit: 4; is-custom-font: none; font-file-url: none; fill: rgb(174,112,12); fill-rule: nonzero; opacity: 1;" transform=" translate(21.5, -40.5)" d="m 0 0 l 5 5 l 4 6 l 2 11 v 18 l -3 10 l -6 10 l -8 7 l -9 5 l -17 5 l -5 2 l -1 2 l -8 -10 l -8 -11 l 1 -2 l 19 -2 l 12 -4 l 9 -6 l 6 -8 l 4 -8 l 2 -8 z" stroke-linecap="round"/>
</g>
		<g transform="matrix(0.625 0 0 0.625 -104.375 241.25)">
<path style="stroke: none; stroke-width: 1; stroke-dasharray: none; stroke-linecap: butt; stroke-dashoffset: 0; stroke-linejoin: miter; stroke-miterlimit: 4; is-custom-font: none; font-file-url: none; fill: rgb(179,116,12); fill-rule: nonzero; opacity: 1;" transform=" translate(-32, -28)" d="m 0 0 h 36 l 14 3 l 9 6 l 5 8 l 1 8 l -2 -3 l -5 -2 l -14 -1 l -20 1 l -9 3 l -3 7 v 26 h -13 v -55 z" stroke-linecap="round"/>
</g>
		<g transform="matrix(0.625 0 0 0.625 -119.0625 299.6875)">
<path style="stroke: none; stroke-width: 1; stroke-dasharray: none; stroke-linecap: butt; stroke-dashoffset: 0; stroke-linejoin: miter; stroke-miterlimit: 4; is-custom-font: none; font-file-url: none; fill: rgb(201,131,14); fill-rule: nonzero; opacity: 1;" transform=" translate(-8.5, -47.5)" d="m 0 0 h 8 l 10 13 l 14 20 v 3 l -9 -11 l -7 -1 l -3 4 l -1 13 v 39 l -3 13 l -3 2 h -6 l -6 -5 l -2 -8 h -7 v -1 l 5 -1 h 9 v -79 z" stroke-linecap="round"/>
</g>
		<g transform="matrix(0.625 0 0 0.625 181.25 265.625)">
<path style="stroke: none; stroke-width: 1; stroke-dasharray: none; stroke-linecap: butt; stroke-dashoffset: 0; stroke-linejoin: miter; stroke-miterlimit: 4; is-custom-font: none; font-file-url: none; fill: rgb(172,111,12); fill-rule: nonzero; opacity: 1;" transform=" translate(-6, -69)" d="m 0 0 l 1 2 l 4 -1 l 2 7 l 2 20 l 1 5 l 1 18 l 1 44 v 43 h -12 z" stroke-linecap="round"/>
</g>
		<g transform="matrix(0.625 0 0 0.625 269.0625 275.9375)">
<path style="stroke: none; stroke-width: 1; stroke-dasharray: none; stroke-linecap: butt; stroke-dashoffset: 0; stroke-linejoin: miter; stroke-miterlimit: 4; is-custom-font: none; font-file-url: none; fill: rgb(248,162,12); fill-rule: nonzero; opacity: 1;" transform=" translate(6.5, -47.5)" d="m 0 0 h 2 l 1 9 l 1 84 l -2 2 l -11 -9 l -6 -8 l -1 -8 l -1 -18 v -9 h 2 v -10 l 7 -20 l 6 -11 h 2 z" stroke-linecap="round"/>
</g>
		<g transform="matrix(0.625 0 0 0.625 -295.625 241.5625)">
<path style="stroke: none; stroke-width: 1; stroke-dasharray: none; stroke-linecap: butt; stroke-dashoffset: 0; stroke-linejoin: miter; stroke-miterlimit: 4; is-custom-font: none; font-file-url: none; fill: rgb(5,58,148); fill-rule: nonzero; opacity: 1;" transform=" translate(-24, -28.5)" d="m 0 0 h 30 l 15 3 l 6 4 l 3 3 v 8 l -1 -2 l -10 1 h -26 l -7 2 l -2 1 l -2 9 l -3 24 v 2 l 2 1 l -10 1 l -1 -1 v -52 l 1 -3 z" stroke-linecap="round"/>
</g>
		<g transform="matrix(0.625 0 0 0.625 -265.625 256.875)">
<path style="stroke: none; stroke-width: 1; stroke-dasharray: none; stroke-linecap: butt; stroke-dashoffset: 0; stroke-linejoin: miter; stroke-miterlimit: 4; is-custom-font: none; font-file-url: none; fill: rgb(174,113,12); fill-rule: nonzero; opacity: 1;" transform=" translate(5, -38)" d="m 0 0 l 1 3 l 4 2 l 5 6 l 2 7 l 1 16 l -4 16 l -7 12 l -10 7 l -10 4 l -4 -1 l -1 4 v -22 l 11 -8 l 7 -10 l 3 -8 l 1 -6 z" stroke-linecap="round"/>
</g>
		<g transform="matrix(0.625 0 0 0.625 -26.25 275.3125)">
<path style="stroke: none; stroke-width: 1; stroke-dasharray: none; stroke-linecap: butt; stroke-dashoffset: 0; stroke-linejoin: miter; stroke-miterlimit: 4; is-custom-font: none; font-file-url: none; fill: rgb(201,131,14); fill-rule: nonzero; opacity: 1;" transform=" translate(18, -82.5)" d="m 0 0 h 10 v 17 l -2 -1 h -10 l -16 2 l -5 1 l -2 8 l -1 12 v 112 l -2 10 l -3 3 l -5 1 l -6 -2 l -2 -5 l -2 -2 l 11 -1 l 2 -10 l 1 -29 v -34 l 1 -26 v -26 l 1 -13 l 5 -3 l 19 -3 l 4 -3 l 1 -6 z" stroke-linecap="round"/>
</g>
		<g transform="matrix(0.625 0 0 0.625 97.5 238.4375)">
<path style="stroke: none; stroke-width: 1; stroke-dasharray: none; stroke-linecap: butt; stroke-dashoffset: 0; stroke-linejoin: miter; stroke-miterlimit: 4; is-custom-font: none; font-file-url: none; fill: rgb(173,112,12); fill-rule: nonzero; opacity: 1;" transform=" translate(4, -27.5)" d="m 0 0 h 14 l 15 5 l 10 6 l 10 9 l 2 3 h -3 l -5 -5 l -3 -2 l -5 1 l -6 1 l -5 -3 l -10 -1 h -13 l -9 2 l -12 5 l -9 5 l -14 13 l -10 16 l -5 -1 l -1 -4 l 8 -15 l 10 -9 l 5 -6 l 11 -7 l 9 -6 l 7 -2 l 9 -2 z" stroke-linecap="round"/>
</g>
		<g transform="matrix(0.625 0 0 0.625 229.0625 274.0625)">
<path style="stroke: none; stroke-width: 1; stroke-dasharray: none; stroke-linecap: butt; stroke-dashoffset: 0; stroke-linejoin: miter; stroke-miterlimit: 4; is-custom-font: none; font-file-url: none; fill: rgb(179,123,23); fill-rule: nonzero; opacity: 1;" transform=" translate(4.5, -79.5)" d="m 0 0 l 2 3 l 3 8 l 2 22 v 70 l 1 34 l -2 17 l -5 5 l -8 -3 l -10 -1 v -2 l 16 -1 z" stroke-linecap="round"/>
</g>
		<g transform="matrix(0.625 0 0 0.625 -190.625 290.3125)">
<path style="stroke: none; stroke-width: 1; stroke-dasharray: none; stroke-linecap: butt; stroke-dashoffset: 0; stroke-linejoin: miter; stroke-miterlimit: 4; is-custom-font: none; font-file-url: none; fill: rgb(201,131,14); fill-rule: nonzero; opacity: 1;" transform=" translate(63, -68.5)" d="m 0 0 l 2 2 l 1 3 l 3 3 l 7 13 l 2 14 l 1 16 l -3 19 l -4 12 l -7 14 l -10 13 l -11 10 l -14 9 l -13 5 l -16 3 l -13 1 l -13 -2 l -16 -5 l -13 -7 l -6 -5 l -8 -14 l -11 -11 v -2 h 2 l 5 6 l 12 9 l 2 2 l -1 1 l 6 4 l 4 6 l 10 6 l 24 7 h 15 l 14 -3 l 10 -3 l 14 -8 l 11 -9 l 9 -10 l 8 -14 l 4 -11 l 2 -10 l 2 -17 l -2 -17 l -3 -11 l -3 -3 h -1 l -2 -11 z" stroke-linecap="round"/>
</g>
		<g transform="matrix(0.625 0 0 0.625 -204.0625 238.75)">
<path style="stroke: none; stroke-width: 1; stroke-dasharray: none; stroke-linecap: butt; stroke-dashoffset: 0; stroke-linejoin: miter; stroke-miterlimit: 4; is-custom-font: none; font-file-url: none; fill: rgb(173,112,12); fill-rule: nonzero; opacity: 1;" transform=" translate(6.5, -28)" d="m 0 0 h 10 l 13 4 l 14 8 l 9 8 l 2 4 l -4 -2 l -8 -6 l -10 1 l -12 -3 h -17 l -9 2 l -12 5 l -9 5 l -10 9 l -3 4 h -2 l -2 5 l -7 11 l -2 1 l -2 -1 v -6 l 4 -11 h 3 l 1 -4 l 14 -14 l 9 -6 l 5 -3 l 2 -2 l 6 -2 l 5 -2 l 11 -3 z" stroke-linecap="round"/>
</g>
		<g transform="matrix(0.625 0 0 0.625 115 292.8125)">
<path style="stroke: none; stroke-width: 1; stroke-dasharray: none; stroke-linecap: butt; stroke-dashoffset: 0; stroke-linejoin: miter; stroke-miterlimit: 4; is-custom-font: none; font-file-url: none; fill: rgb(201,131,13); fill-rule: nonzero; opacity: 1;" transform=" translate(60, -63.5)" d="m 0 0 l 1 2 l 4 2 l 2 8 h 2 l 3 12 v 27 l -2 12 l -8 19 l -7 11 l -8 10 l -13 10 l -9 6 l -13 5 l -16 3 h -21 l -15 -4 l -13 -5 l -7 -5 v -2 l -5 -2 l -7 -12 l 1 -2 l 13 9 l 2 6 l 4 1 l 8 5 l 21 6 l 7 1 h 11 l 17 -4 l 12 -5 l 10 -6 l 13 -12 l 7 -10 l 5 -10 l 1 -3 h 2 l 2 -10 l 2 -8 l 1 -24 l -2 -13 l -5 -9 z" stroke-linecap="round"/>
</g>
		<g transform="matrix(0.625 0 0 0.625 101.25 316.5625)">
<path style="stroke: none; stroke-width: 1; stroke-dasharray: none; stroke-linecap: butt; stroke-dashoffset: 0; stroke-linejoin: miter; stroke-miterlimit: 4; is-custom-font: none; font-file-url: none; fill: rgb(175,113,12); fill-rule: nonzero; opacity: 1;" transform=" translate(-62, -19.5)" d="m 0 0 l 7 6 l 10 8 l 16 8 l 15 4 l 16 1 l 17 -2 h 5 v 2 l 7 2 l 4 -1 h 2 v -2 l 5 -2 h 3 v -2 l 16 -10 l 1 4 l -3 5 l -10 8 l -12 6 l -15 4 h -15 l -20 -1 l -13 -5 l -5 -4 l -3 -1 l -2 -3 v -3 l -5 -2 l -12 -9 l -9 -9 z" stroke-linecap="round"/>
</g>
		<g transform="matrix(0.625 0 0 0.625 -194.375 320)">
<path style="stroke: none; stroke-width: 1; stroke-dasharray: none; stroke-linecap: butt; stroke-dashoffset: 0; stroke-linejoin: miter; stroke-miterlimit: 4; is-custom-font: none; font-file-url: none; fill: rgb(175,113,12); fill-rule: nonzero; opacity: 1;" transform=" translate(52, -14)" d="m 0 0 l 2 1 l -2 5 l -8 7 l -8 6 l -10 5 l -11 3 l -4 1 h -14 l -15 -1 l -13 -4 l -5 -3 l -7 -2 l -4 -5 v -2 l -4 -2 l -3 -3 l 5 1 l 15 6 l 10 2 h 35 l 1 4 h 7 l 11 -5 l 8 -4 l 7 -6 l 4 -2 z" stroke-linecap="round"/>
</g>
		<g transform="matrix(0.625 0 0 0.625 192.8125 324.0625)">
<path style="stroke: none; stroke-width: 1; stroke-dasharray: none; stroke-linecap: butt; stroke-dashoffset: 0; stroke-linejoin: miter; stroke-miterlimit: 4; is-custom-font: none; font-file-url: none; fill: rgb(172,111,12); fill-rule: nonzero; opacity: 1;" transform=" translate(-4.5, -6.5)" d="m 0 0 h 43 l 1 4 l -4 5 h -2 l -1 2 l -15 2 h -23 l -13 -1 l -8 -3 l -3 -1 l -1 -5 l -9 -1 v -1 z" stroke-linecap="round"/>
</g>
		<g transform="matrix(0.625 0 0 0.625 -83.4375 259.0625)">
<path style="stroke: none; stroke-width: 1; stroke-dasharray: none; stroke-linecap: butt; stroke-dashoffset: 0; stroke-linejoin: miter; stroke-miterlimit: 4; is-custom-font: none; font-file-url: none; fill: rgb(179,123,23); fill-rule: nonzero; opacity: 1;" transform=" translate(16.5, -40.5)" d="m 0 0 l 5 5 l 4 6 l 2 11 v 18 l -3 10 l -6 10 l -8 7 l -9 5 l -17 5 l -5 2 l -1 2 l -6 -8 l 9 -3 l 13 -3 l 12 -6 l 7 -9 l 2 -7 l 2 -1 l 1 -11 l 1 -3 v -8 l -2 -2 h -1 z" stroke-linecap="round"/>
</g>
		<g transform="matrix(0.625 0 0 0.625 100.3125 262.5)">
<path style="stroke: none; stroke-width: 1; stroke-dasharray: none; stroke-linecap: butt; stroke-dashoffset: 0; stroke-linejoin: miter; stroke-miterlimit: 4; is-custom-font: none; font-file-url: none; fill: rgb(201,131,14); fill-rule: nonzero; opacity: 1;" transform=" translate(0.5, -51)" d="m 0 0 h 20 l 7 1 l 4 1 l 5 -2 l 5 1 l 6 5 v 2 l 5 1 l 7 11 l -1 2 l -4 -5 v -2 h -2 v -2 l -9 -2 l -21 -7 h -18 l -13 3 l -10 4 l -11 8 l -5 5 h -2 l -2 5 l -4 5 l -5 12 l -3 10 l -1 7 l -1 24 v 9 l 2 6 l -5 -5 l -4 -8 l 2 -10 l 2 -23 l 3 -11 l 4 -9 l 7 -11 l 11 -11 l 10 -7 l 13 -5 z" stroke-linecap="round"/>
</g>
		<g transform="matrix(0.625 0 0 0.625 -201.25 262.5)">
<path style="stroke: none; stroke-width: 1; stroke-dasharray: none; stroke-linecap: butt; stroke-dashoffset: 0; stroke-linejoin: miter; stroke-miterlimit: 4; is-custom-font: none; font-file-url: none; fill: rgb(201,131,14); fill-rule: nonzero; opacity: 1;" transform=" translate(1, -51)" d="m 0 0 h 18 l 13 3 h 2 v -2 l 5 -1 l 9 8 l 4 2 l 8 13 l -1 3 l -6 -10 l -5 -3 l -13 -4 l -11 -4 l -5 -1 h -16 l -16 4 l -10 5 l -9 7 l -6 7 h -2 l -2 4 l -3 5 l -7 20 l -1 11 l -1 29 l 2 6 l -5 -5 l -3 -7 l 1 -13 l 1 -4 l 1 -16 l 4 -15 l 7 -13 l 12 -13 l 10 -8 l 11 -5 z" stroke-linecap="round"/>
</g>
		<g transform="matrix(0.625 0 0 0.625 22.5 301.5625)">
<path style="stroke: none; stroke-width: 1; stroke-dasharray: none; stroke-linecap: butt; stroke-dashoffset: 0; stroke-linejoin: miter; stroke-miterlimit: 4; is-custom-font: none; font-file-url: none; fill: rgb(200,131,14); fill-rule: nonzero; opacity: 1;" transform=" translate(43, -43.5)" d="m 0 0 h 1 v 8 l -6 -1 l -9 2 l -31 1 l -10 2 l -5 2 l -1 55 l -2 14 l -5 4 l -3 -1 v -5 l -6 -1 l -2 -4 l -8 -1 v -1 l 14 -1 l 2 2 v 3 h 2 l 1 -6 l 3 -17 l 1 -42 l 2 -5 l 8 -3 l 23 -1 h 16 l 12 -2 h 3 z" stroke-linecap="round"/>
</g>
		<g transform="matrix(0.625 0 0 0.625 181.25 265.625)">
<path style="stroke: none; stroke-width: 1; stroke-dasharray: none; stroke-linecap: butt; stroke-dashoffset: 0; stroke-linejoin: miter; stroke-miterlimit: 4; is-custom-font: none; font-file-url: none; fill: rgb(201,131,14); fill-rule: nonzero; opacity: 1;" transform=" translate(-6, -69)" d="m 0 0 l 1 2 l 4 -1 l 2 7 l 2 20 l 1 5 l 1 18 l 1 44 v 43 l -6 -2 l -2 -7 v -18 l 2 -25 v -62 l -1 -9 l -3 -4 l -2 -5 z" stroke-linecap="round"/>
</g>
		<g transform="matrix(0.625 0 0 0.625 266.25 242.1875)">
<path style="stroke: none; stroke-width: 1; stroke-dasharray: none; stroke-linecap: butt; stroke-dashoffset: 0; stroke-linejoin: miter; stroke-miterlimit: 4; is-custom-font: none; font-file-url: none; fill: rgb(173,112,12); fill-rule: nonzero; opacity: 1;" transform=" translate(13, -23.5)" d="m 0 0 h 1 v 39 h -1 v -17 l -5 2 l -1 4 l -5 8 l -6 5 l -4 6 l -5 -1 l -1 -3 l 4 -14 l 4 -8 l 2 -5 l 9 -10 z" stroke-linecap="round"/>
</g>
		<g transform="matrix(0.625 0 0 0.625 138.75 290.625)">
<path style="stroke: none; stroke-width: 1; stroke-dasharray: none; stroke-linecap: butt; stroke-dashoffset: 0; stroke-linejoin: miter; stroke-miterlimit: 4; is-custom-font: none; font-file-url: none; fill: rgb(181,117,12); fill-rule: nonzero; opacity: 1;" transform=" translate(23, -46)" d="m 0 0 h 1 l 3 17 v 11 l -3 16 l -3 8 h -2 l 1 3 h -2 l -2 8 l -9 9 l -5 -1 l -2 5 l -7 7 l -13 8 l -5 1 l -2 -2 v -2 l 13 -7 l 10 -9 h 2 l 2 -4 l 7 -8 l 7 -12 l 5 -13 l 3 -15 z" stroke-linecap="round"/>
</g>
		<g transform="matrix(0.625 0 0 0.625 29.0625 240)">
<path style="stroke: none; stroke-width: 1; stroke-dasharray: none; stroke-linecap: butt; stroke-dashoffset: 0; stroke-linejoin: miter; stroke-miterlimit: 4; is-custom-font: none; font-file-url: none; fill: rgb(201,131,14); fill-rule: nonzero; opacity: 1;" transform=" translate(24.5, -28)" d="m 0 0 l 9 3 l 1 3 v 8 l -2 3 l -6 2 l -24 2 h -13 l -11 1 l -5 5 l -1 6 v 21 l 1 2 l -5 -2 v -2 h -2 l -1 -10 v -11 l 2 -9 l 4 -5 l 6 -1 h 22 l 22 -1 l 6 -1 v -2 l 2 -2 l -2 -4 v -3 l -3 -1 z" stroke-linecap="round"/>
</g>
		<g transform="matrix(0.625 0 0 0.625 266.5625 268.125)">
<path style="stroke: none; stroke-width: 1; stroke-dasharray: none; stroke-linecap: butt; stroke-dashoffset: 0; stroke-linejoin: miter; stroke-miterlimit: 4; is-custom-font: none; font-file-url: none; fill: rgb(201,131,14); fill-rule: nonzero; opacity: 1;" transform=" translate(10.5, -43)" d="m 0 0 h 2 v 8 h -2 v 2 h -2 l -1 4 l -6 12 l -5 15 l -1 10 l -1 1 v 16 l 1 14 l 1 4 l -5 -5 l -4 -7 l 1 -3 v -20 l 2 -14 l 3 -7 l 5 -12 l 5 -9 l 4 -7 z" stroke-linecap="round"/>
</g>
		<g transform="matrix(0.625 0 0 0.625 -102.8125 245.625)">
<path style="stroke: none; stroke-width: 1; stroke-dasharray: none; stroke-linecap: butt; stroke-dashoffset: 0; stroke-linejoin: miter; stroke-miterlimit: 4; is-custom-font: none; font-file-url: none; fill: rgb(201,131,14); fill-rule: nonzero; opacity: 1;" transform=" translate(-10.5, -21)" d="m 0 0 h 31 l 9 3 l 1 8 l -2 -3 l -5 -2 l -14 -1 l -20 1 l -9 3 l -3 7 v 26 l -7 -1 l -1 -9 l 1 -5 l 1 -14 l 4 -9 l 7 -3 z" stroke-linecap="round"/>
</g>
		<g transform="matrix(0.625 0 0 0.625 -153.4375 286.875)">
<path style="stroke: none; stroke-width: 1; stroke-dasharray: none; stroke-linecap: butt; stroke-dashoffset: 0; stroke-linejoin: miter; stroke-miterlimit: 4; is-custom-font: none; font-file-url: none; fill: rgb(177,114,12); fill-rule: nonzero; opacity: 1;" transform=" translate(8.5, -31)" d="m 0 0 h 1 l 2 13 v 7 l -3 16 l -6 16 l -6 10 l -5 -1 v -3 l -2 -1 l -1 2 l 1 -7 l 7 -11 l 5 -11 l 5 -21 z" stroke-linecap="round"/>
</g>
		<g transform="matrix(0.625 0 0 0.625 -119.0625 294.6875)">
<path style="stroke: none; stroke-width: 1; stroke-dasharray: none; stroke-linecap: butt; stroke-dashoffset: 0; stroke-linejoin: miter; stroke-miterlimit: 4; is-custom-font: none; font-file-url: none; fill: rgb(174,112,12); fill-rule: nonzero; opacity: 1;" transform=" translate(-8.5, -39.5)" d="m 0 0 h 8 l 9 12 v 2 h -6 l -2 -1 l -4 2 l -1 10 l 1 33 v 11 l -2 8 h -2 l -1 2 z" stroke-linecap="round"/>
</g>
		<g transform="matrix(0.625 0 0 0.625 -38.4375 278.75)">
<path style="stroke: none; stroke-width: 1; stroke-dasharray: none; stroke-linecap: butt; stroke-dashoffset: 0; stroke-linejoin: miter; stroke-miterlimit: 4; is-custom-font: none; font-file-url: none; fill: rgb(179,123,24); fill-rule: nonzero; opacity: 1;" transform=" translate(10.5, -68)" d="m 0 0 h 1 v 44 l -1 19 v 41 l -1 21 l -2 10 l -1 1 h -18 v -1 l 15 -2 l 2 -1 l 2 -13 l -1 -11 v -58 l 1 -7 l 2 -40 z" stroke-linecap="round"/>
</g>
		<g transform="matrix(0.625 0 0 0.625 -125 296.875)">
<path style="stroke: none; stroke-width: 1; stroke-dasharray: none; stroke-linecap: butt; stroke-dashoffset: 0; stroke-linejoin: miter; stroke-miterlimit: 4; is-custom-font: none; font-file-url: none; fill: rgb(193,131,21); fill-rule: nonzero; opacity: 1;" transform=" translate(0, -42)" d="m 0 0 h 1 l 1 76 l 3 -9 v -16 l -1 -28 l 1 -9 l 5 -3 l 4 3 l -4 10 l -1 12 v 30 l -2 15 l -3 3 l -4 -1 v -2 h -14 v -1 l 5 -1 h 9 z" stroke-linecap="round"/>
</g>
		<g transform="matrix(0.625 0 0 0.625 -82.8125 259.0625)">
<path style="stroke: none; stroke-width: 1; stroke-dasharray: none; stroke-linecap: butt; stroke-dashoffset: 0; stroke-linejoin: miter; stroke-miterlimit: 4; is-custom-font: none; font-file-url: none; fill: rgb(203,132,14); fill-rule: nonzero; opacity: 1;" transform=" translate(15.5, -40.5)" d="m 0 0 l 5 5 l 4 6 l 2 11 v 18 l -3 10 l -6 10 l -8 7 l -9 5 l -17 5 l -5 2 l -1 2 l -4 -5 l 4 -2 l 14 -3 l 12 -5 l 8 -6 l 6 -7 l 4 -10 l 1 -7 v -15 l -3 -10 l -2 -2 l -1 11 h -1 z" stroke-linecap="round"/>
</g>
		<g transform="matrix(0.625 0 0 0.625 -57.1875 230.3125)">
<path style="stroke: none; stroke-width: 1; stroke-dasharray: none; stroke-linecap: butt; stroke-dashoffset: 0; stroke-linejoin: miter; stroke-miterlimit: 4; is-custom-font: none; font-file-url: none; fill: rgb(173,112,13); fill-rule: nonzero; opacity: 1;" transform=" translate(-16.5, -9.5)" d="m 0 0 h 33 v 19 l -5 -3 l -13 -1 l -4 -2 l -2 -8 l 1 -4 h -10 z" stroke-linecap="round"/>
</g>
		<g transform="matrix(0.625 0 0 0.625 -216.5625 230.625)">
<path style="stroke: none; stroke-width: 1; stroke-dasharray: none; stroke-linecap: butt; stroke-dashoffset: 0; stroke-linejoin: miter; stroke-miterlimit: 4; is-custom-font: none; font-file-url: none; fill: rgb(206,135,14); fill-rule: nonzero; opacity: 1;" transform=" translate(18.5, -16)" d="m 0 0 h 12 l -4 1 l -1 3 l -15 4 l -5 3 l -4 2 l -7 4 l -7 3 l -5 4 l -3 3 l -8 5 l -2 -1 l 7 -9 l 8 -8 l 13 -8 l 15 -5 z" stroke-linecap="round"/>
</g>
		<g transform="matrix(0.625 0 0 0.625 -265.3125 255.9375)">
<path style="stroke: none; stroke-width: 1; stroke-dasharray: none; stroke-linecap: butt; stroke-dashoffset: 0; stroke-linejoin: miter; stroke-miterlimit: 4; is-custom-font: none; font-file-url: none; fill: rgb(201,131,14); fill-rule: nonzero; opacity: 1;" transform=" translate(4.5, -36.5)" d="m 0 0 l 1 3 l 4 2 l 5 6 l 2 7 l 1 16 l -4 16 l -7 12 l -10 7 l -10 4 l -4 -1 v -5 l 9 -1 l 10 -6 l 5 -6 l 5 -12 l 2 -10 v -11 l -4 -9 l -4 -5 z" stroke-linecap="round"/>
</g>
		<g transform="matrix(0.625 0 0 0.625 179.6875 255.3125)">
<path style="stroke: none; stroke-width: 1; stroke-dasharray: none; stroke-linecap: butt; stroke-dashoffset: 0; stroke-linejoin: miter; stroke-miterlimit: 4; is-custom-font: none; font-file-url: none; fill: rgb(179,123,24); fill-rule: nonzero; opacity: 1;" transform=" translate(-3.5, -46.5)" d="m 0 0 l 2 2 l 2 4 l 2 3 l 1 16 v 60 l -1 8 l -2 -2 v -54 h -2 l -1 -8 l -1 -1 z" stroke-linecap="round"/>
</g>
		<g transform="matrix(0.625 0 0 0.625 233.75 276.25)">
<path style="stroke: none; stroke-width: 1; stroke-dasharray: none; stroke-linecap: butt; stroke-dashoffset: 0; stroke-linejoin: miter; stroke-miterlimit: 4; is-custom-font: none; font-file-url: none; fill: rgb(172,111,12); fill-rule: nonzero; opacity: 1;" transform=" translate(-2, -71)" d="m 0 0 h 1 l 1 17 v 44 l 1 39 v 10 l 1 10 v 15 l -2 6 l -2 1 z" stroke-linecap="round"/>
</g>
		<g transform="matrix(0.625 0 0 0.625 -264.0625 256.5625)">
<path style="stroke: none; stroke-width: 1; stroke-dasharray: none; stroke-linecap: butt; stroke-dashoffset: 0; stroke-linejoin: miter; stroke-miterlimit: 4; is-custom-font: none; font-file-url: none; fill: rgb(179,123,24); fill-rule: nonzero; opacity: 1;" transform=" translate(4.5, -29.5)" d="m 0 0 l 4 4 l 4 9 v 11 l -4 16 l -5 9 h -2 l -2 4 l -10 6 l -2 -1 l 8 -6 l 6 -9 l 6 -13 v -20 z" stroke-linecap="round"/>
</g>
		<g transform="matrix(0.625 0 0 0.625 -77.5 323.75)">
<path style="stroke: none; stroke-width: 1; stroke-dasharray: none; stroke-linecap: butt; stroke-dashoffset: 0; stroke-linejoin: miter; stroke-miterlimit: 4; is-custom-font: none; font-file-url: none; fill: rgb(195,127,14); fill-rule: nonzero; opacity: 1;" transform=" translate(10, -7)" d="m 0 0 l 1 2 v 7 l -5 5 l -7 -1 l -6 -5 l -1 -5 l -3 -1 v -1 z" stroke-linecap="round"/>
</g>
		<g transform="matrix(0.625 0 0 0.625 10.625 298.4375)">
<path style="stroke: none; stroke-width: 1; stroke-dasharray: none; stroke-linecap: butt; stroke-dashoffset: 0; stroke-linejoin: miter; stroke-miterlimit: 4; is-custom-font: none; font-file-url: none; fill: rgb(179,123,24); fill-rule: nonzero; opacity: 1;" transform=" translate(3, -33.5)" d="m 0 0 l 4 1 l -7 3 l -1 4 l -1 43 l -3 16 l -2 -3 l 1 -17 l 1 -39 l 3 -7 z" stroke-linecap="round"/>
</g>
		<g transform="matrix(0.625 0 0 0.625 -193.4375 325)">
<path style="stroke: none; stroke-width: 1; stroke-dasharray: none; stroke-linecap: butt; stroke-dashoffset: 0; stroke-linejoin: miter; stroke-miterlimit: 4; is-custom-font: none; font-file-url: none; fill: rgb(179,123,24); fill-rule: nonzero; opacity: 1;" transform=" translate(40.5, -9)" d="m 0 0 m -1 1 m -1 1 m -1 1 m -1 1 m -1 1 m -2 0 l 2 1 v 2 l -7 4 l -17 5 l -7 1 h -15 l -18 -5 l -9 -4 l -3 -3 l 4 1 l 12 5 l 10 1 l 13 1 h 11 l 9 -2 l 12 -5 z" stroke-linecap="round"/>
</g>
		<g transform="matrix(0.625 0 0 0.625 -274.6875 241.875)">
<path style="stroke: none; stroke-width: 1; stroke-dasharray: none; stroke-linecap: butt; stroke-dashoffset: 0; stroke-linejoin: miter; stroke-miterlimit: 4; is-custom-font: none; font-file-url: none; fill: rgb(249,163,12); fill-rule: nonzero; opacity: 1;" transform=" translate(-3.5, -18)" d="m 0 0 l 4 4 l 2 4 l 1 12 l -3 12 l -4 4 z" stroke-linecap="round"/>
</g>
		<g transform="matrix(0.625 0 0 0.625 130.9375 311.5625)">
<path style="stroke: none; stroke-width: 1; stroke-dasharray: none; stroke-linecap: butt; stroke-dashoffset: 0; stroke-linejoin: miter; stroke-miterlimit: 4; is-custom-font: none; font-file-url: none; fill: rgb(206,135,14); fill-rule: nonzero; opacity: 1;" transform=" translate(13.5, -12.5)" d="m 0 0 l 1 3 l -1 5 l -8 8 l -13 8 l -5 1 l -2 -2 v -2 l 13 -7 l 10 -9 h 2 l 2 -4 z" stroke-linecap="round"/>
</g>
		<g transform="matrix(0.625 0 0 0.625 -209.375 225.9375)">
<path style="stroke: none; stroke-width: 1; stroke-dasharray: none; stroke-linecap: butt; stroke-dashoffset: 0; stroke-linejoin: miter; stroke-miterlimit: 4; is-custom-font: none; font-file-url: none; fill: rgb(182,124,23); fill-rule: nonzero; opacity: 1;" transform=" translate(7, -8.5)" d="m 0 0 h 12 l -4 1 l -1 3 l -15 4 l -5 3 l -4 2 l -7 4 h -2 l 1 -3 l 5 -3 l 1 -2 h 2 l 1 -5 z" stroke-linecap="round"/>
</g>
		<g transform="matrix(0.625 0 0 0.625 76.5625 232.5)">
<path style="stroke: none; stroke-width: 1; stroke-dasharray: none; stroke-linecap: butt; stroke-dashoffset: 0; stroke-linejoin: miter; stroke-miterlimit: 4; is-custom-font: none; font-file-url: none; fill: rgb(203,133,15); fill-rule: nonzero; opacity: 1;" transform=" translate(12.5, -13)" d="m 0 0 l 3 1 v 2 h -2 l -1 3 l -16 12 l -4 4 h -3 l -1 3 l -4 1 l 4 -7 l 11 -11 l 11 -7 z" stroke-linecap="round"/>
</g>
		<g transform="matrix(0.625 0 0 0.625 -34.375 293.125)">
<path style="stroke: none; stroke-width: 1; stroke-dasharray: none; stroke-linecap: butt; stroke-dashoffset: 0; stroke-linejoin: miter; stroke-miterlimit: 4; is-custom-font: none; font-file-url: none; fill: rgb(172,111,12); fill-rule: nonzero; opacity: 1;" transform=" translate(-1, -43)" d="m 0 0 h 2 v 60 l 1 12 l -2 14 l -2 -2 v -50 z" stroke-linecap="round"/>
</g>
		<g transform="matrix(0.625 0 0 0.625 -172.1875 311.5625)">
<path style="stroke: none; stroke-width: 1; stroke-dasharray: none; stroke-linecap: butt; stroke-dashoffset: 0; stroke-linejoin: miter; stroke-miterlimit: 4; is-custom-font: none; font-file-url: none; fill: rgb(204,133,14); fill-rule: nonzero; opacity: 1;" transform=" translate(11.5, -10.5)" d="m 0 0 h 4 l -1 4 l -9 9 l -14 8 l -7 -2 l 3 -2 l 12 -7 z" stroke-linecap="round"/>
</g>
		<g transform="matrix(0.625 0 0 0.625 92.1875 226.5625)">
<path style="stroke: none; stroke-width: 1; stroke-dasharray: none; stroke-linecap: butt; stroke-dashoffset: 0; stroke-linejoin: miter; stroke-miterlimit: 4; is-custom-font: none; font-file-url: none; fill: rgb(188,127,21); fill-rule: nonzero; opacity: 1;" transform=" translate(7.5, -9.5)" d="m 0 0 h 13 v 1 h -8 v 3 l -18 6 l -10 7 l -5 2 l 6 -7 l 3 -3 h 2 l -1 -3 l 9 -4 z" stroke-linecap="round"/>
</g>
		<g transform="matrix(0.625 0 0 0.625 -54.375 230.625)">
<path style="stroke: none; stroke-width: 1; stroke-dasharray: none; stroke-linecap: butt; stroke-dashoffset: 0; stroke-linejoin: miter; stroke-miterlimit: 4; is-custom-font: none; font-file-url: none; fill: rgb(201,131,14); fill-rule: nonzero; opacity: 1;" transform=" translate(-11, -9)" d="m 0 0 l 5 1 l 1 6 l 5 2 h 7 v 2 l 4 2 l 1 5 l -5 -3 l -13 -1 l -4 -2 l -2 -8 z" stroke-linecap="round"/>
</g>
		<g transform="matrix(0.625 0 0 0.625 26.5625 276.5625)">
<path style="stroke: none; stroke-width: 1; stroke-dasharray: none; stroke-linecap: butt; stroke-dashoffset: 0; stroke-linejoin: miter; stroke-miterlimit: 4; is-custom-font: none; font-file-url: none; fill: rgb(186,127,22); fill-rule: nonzero; opacity: 1;" transform=" translate(34.5, -13.5)" d="m 0 0 h 1 v 5 l -4 2 l -1 -5 h -65 v 25 h -1 v -26 z" stroke-linecap="round"/>
</g>
		<g transform="matrix(0.625 0 0 0.625 -198.125 232.5)">
<path style="stroke: none; stroke-width: 1; stroke-dasharray: none; stroke-linecap: butt; stroke-dashoffset: 0; stroke-linejoin: miter; stroke-miterlimit: 4; is-custom-font: none; font-file-url: none; fill: rgb(179,123,24); fill-rule: nonzero; opacity: 1;" transform=" translate(-6, -5)" d="m 0 0 h 18 l 13 3 h 4 v 2 l -4 1 l -11 -3 h -18 l -14 3 l -8 4 l -3 -1 l 4 -3 l 13 -5 z" stroke-linecap="round"/>
</g>
		<g transform="matrix(0.625 0 0 0.625 266.25 315)">
<path style="stroke: none; stroke-width: 1; stroke-dasharray: none; stroke-linecap: butt; stroke-dashoffset: 0; stroke-linejoin: miter; stroke-miterlimit: 4; is-custom-font: none; font-file-url: none; fill: rgb(182,123,24); fill-rule: nonzero; opacity: 1;" transform=" translate(-14, -17)" d="m 0 0 l 4 2 l 5 5 l 7 6 l 8 5 v 3 h 3 l 1 2 v 11 h -1 v -9 l -7 -2 l -3 -6 l -10 -8 l -7 -7 z" stroke-linecap="round"/>
</g>
		<g transform="matrix(0.625 0 0 0.625 -94.0625 268.125)">
<path style="stroke: none; stroke-width: 1; stroke-dasharray: none; stroke-linecap: butt; stroke-dashoffset: 0; stroke-linejoin: miter; stroke-miterlimit: 4; is-custom-font: none; font-file-url: none; fill: rgb(203,136,19); fill-rule: nonzero; opacity: 1;" transform=" translate(17.5, -7)" d="m 0 0 l 2 1 l -6 7 l -4 1 l -6 2 l -4 2 l -5 1 l -4 -1 v -1 l -9 -1 l -1 2 v -3 l 19 -2 l 12 -4 z" stroke-linecap="round"/>
</g>
		<g transform="matrix(0.625 0 0 0.625 100.625 233.125)">
<path style="stroke: none; stroke-width: 1; stroke-dasharray: none; stroke-linecap: butt; stroke-dashoffset: 0; stroke-linejoin: miter; stroke-miterlimit: 4; is-custom-font: none; font-file-url: none; fill: rgb(179,123,24); fill-rule: nonzero; opacity: 1;" transform=" translate(0, -6)" d="m 0 0 h 13 l 13 2 v 1 h -26 l -14 4 l -10 5 l -2 -1 l 5 -4 l 12 -5 z" stroke-linecap="round"/>
</g>
		<g transform="matrix(0.625 0 0 0.625 -115.625 240.9375)">
<path style="stroke: none; stroke-width: 1; stroke-dasharray: none; stroke-linecap: butt; stroke-dashoffset: 0; stroke-linejoin: miter; stroke-miterlimit: 4; is-custom-font: none; font-file-url: none; fill: rgb(179,123,24); fill-rule: nonzero; opacity: 1;" transform=" translate(-1, -13.5)" d="m 0 0 h 11 v 1 l -11 2 l -4 4 l -2 9 l -1 11 l -2 -2 v -16 l 4 -6 z" stroke-linecap="round"/>
</g>
		<g transform="matrix(0.625 0 0 0.625 270.625 231.25)">
<path style="stroke: none; stroke-width: 1; stroke-dasharray: none; stroke-linecap: butt; stroke-dashoffset: 0; stroke-linejoin: miter; stroke-miterlimit: 4; is-custom-font: none; font-file-url: none; fill: rgb(211,138,13); fill-rule: nonzero; opacity: 1;" transform=" translate(6, -6)" d="m 0 0 h 1 v 7 l -7 4 l -2 -1 l -5 2 l 6 -7 z" stroke-linecap="round"/>
</g>
		<g transform="matrix(0.625 0 0 0.625 -88.125 267.1875)">
<path style="stroke: none; stroke-width: 1; stroke-dasharray: none; stroke-linecap: butt; stroke-dashoffset: 0; stroke-linejoin: miter; stroke-miterlimit: 4; is-custom-font: none; font-file-url: none; fill: rgb(195,132,21); fill-rule: nonzero; opacity: 1;" transform=" translate(8, -5.5)" d="m 0 0 l 2 1 l -6 7 l -4 1 l -6 2 l -4 -3 l 12 -4 z" stroke-linecap="round"/>
</g>
		<g transform="matrix(0.625 0 0 0.625 232.5 320)">
<path style="stroke: none; stroke-width: 1; stroke-dasharray: none; stroke-linecap: butt; stroke-dashoffset: 0; stroke-linejoin: miter; stroke-miterlimit: 4; is-custom-font: none; font-file-url: none; fill: rgb(179,123,24); fill-rule: nonzero; opacity: 1;" transform=" translate(4, -6)" d="m 0 0 h 2 l -2 9 l -4 3 l -6 -2 l 1 -2 h 4 l 1 -2 l 2 -1 z" stroke-linecap="round"/>
</g>
		<g transform="matrix(0.625 0 0 0.625 -39.0625 317.5)">
<path style="stroke: none; stroke-width: 1; stroke-dasharray: none; stroke-linecap: butt; stroke-dashoffset: 0; stroke-linejoin: miter; stroke-miterlimit: 4; is-custom-font: none; font-file-url: none; fill: rgb(179,122,22); fill-rule: nonzero; opacity: 1;" transform=" translate(8.5, -6)" d="m 0 0 l 2 1 l -2 10 l -1 1 h -18 v -1 l 15 -2 l 2 -1 z" stroke-linecap="round"/>
</g>
		<g transform="matrix(0.625 0 0 0.625 260 245.9375)">
<path style="stroke: none; stroke-width: 1; stroke-dasharray: none; stroke-linecap: butt; stroke-dashoffset: 0; stroke-linejoin: miter; stroke-miterlimit: 4; is-custom-font: none; font-file-url: none; fill: rgb(208,139,18); fill-rule: nonzero; opacity: 1;" transform=" translate(4, -10.5)" d="m 0 0 l 1 2 l -4 8 l -2 7 l -4 4 l 1 -6 l 7 -14 z" stroke-linecap="round"/>
</g>
		<g transform="matrix(0.625 0 0 0.625 68.75 309.6875)">
<path style="stroke: none; stroke-width: 1; stroke-dasharray: none; stroke-linecap: butt; stroke-dashoffset: 0; stroke-linejoin: miter; stroke-miterlimit: 4; is-custom-font: none; font-file-url: none; fill: rgb(186,123,15); fill-rule: nonzero; opacity: 1;" transform=" translate(-10, -8.5)" d="m 0 0 l 7 6 l 10 8 l 3 3 l -4 -1 l -8 -6 l -8 -8 z" stroke-linecap="round"/>
</g>
		<g transform="matrix(0.625 0 0 0.625 226.5625 320.9375)">
<path style="stroke: none; stroke-width: 1; stroke-dasharray: none; stroke-linecap: butt; stroke-dashoffset: 0; stroke-linejoin: miter; stroke-miterlimit: 4; is-custom-font: none; font-file-url: none; fill: rgb(175,117,18); fill-rule: nonzero; opacity: 1;" transform=" translate(-8.5, -1.5)" d="m 0 0 h 16 l 1 2 l -7 1 l -10 -1 z" stroke-linecap="round"/>
</g>
		<g transform="matrix(0.625 0 0 0.625 -203.75 221.875)">
<path style="stroke: none; stroke-width: 1; stroke-dasharray: none; stroke-linecap: butt; stroke-dashoffset: 0; stroke-linejoin: miter; stroke-miterlimit: 4; is-custom-font: none; font-file-url: none; fill: rgb(209,136,12); fill-rule: nonzero; opacity: 1;" transform=" translate(-2, -2)" d="m 0 0 h 12 l -4 2 h -10 v 2 h -6 l 2 -1 v -2 z" stroke-linecap="round"/>
</g>
		<g transform="matrix(0.625 0 0 0.625 134.375 240)">
<path style="stroke: none; stroke-width: 1; stroke-dasharray: none; stroke-linecap: butt; stroke-dashoffset: 0; stroke-linejoin: miter; stroke-miterlimit: 4; is-custom-font: none; font-file-url: none; fill: rgb(199,130,14); fill-rule: nonzero; opacity: 1;" transform=" translate(-5, -7)" d="m 0 0 l 4 2 l 6 10 l -1 2 l -4 -5 v -2 h -2 l -3 -5 z" stroke-linecap="round"/>
</g>
		<g transform="matrix(0.625 0 0 0.625 260.9375 307.5)">
<path style="stroke: none; stroke-width: 1; stroke-dasharray: none; stroke-linecap: butt; stroke-dashoffset: 0; stroke-linejoin: miter; stroke-miterlimit: 4; is-custom-font: none; font-file-url: none; fill: rgb(206,136,16); fill-rule: nonzero; opacity: 1;" transform=" translate(-5.5, -5)" d="m 0 0 l 4 2 l 5 5 l 2 3 h -3 l -8 -8 z" stroke-linecap="round"/>
</g>
		<g transform="matrix(0.625 0 0 0.625 46.875 270.3125)">
<path style="stroke: none; stroke-width: 1; stroke-dasharray: none; stroke-linecap: butt; stroke-dashoffset: 0; stroke-linejoin: miter; stroke-miterlimit: 4; is-custom-font: none; font-file-url: none; fill: rgb(201,131,14); fill-rule: nonzero; opacity: 1;" transform=" translate(2, -3.5)" d="m 0 0 h 1 v 5 l -4 2 l -2 -6 z" stroke-linecap="round"/>
</g>
		<g transform="matrix(0.625 0 0 0.625 -275.625 234.6875)">
<path style="stroke: none; stroke-width: 1; stroke-dasharray: none; stroke-linecap: butt; stroke-dashoffset: 0; stroke-linejoin: miter; stroke-miterlimit: 4; is-custom-font: none; font-file-url: none; fill: rgb(189,125,17); fill-rule: nonzero; opacity: 1;" transform=" translate(-2, -6.5)" d="m 0 0 l 4 4 l -1 3 h -1 l -1 6 h -1 z" stroke-linecap="round"/>
</g>
		<g transform="matrix(0.625 0 0 0.625 -335 -107.8125)">
<path style="stroke: none; stroke-width: 1; stroke-dasharray: none; stroke-linecap: butt; stroke-dashoffset: 0; stroke-linejoin: miter; stroke-miterlimit: 4; is-custom-font: none; font-file-url: none; fill: rgb(5,58,148); fill-rule: nonzero; opacity: 1;" transform=" translate(-1, -1.5)" d="m 0 0 h 2 l -1 3 z" stroke-linecap="round"/>
</g>
		<g transform="matrix(0.625 0 0 0.625 333.75 426.25)">
<path style="stroke: none; stroke-width: 1; stroke-dasharray: none; stroke-linecap: butt; stroke-dashoffset: 0; stroke-linejoin: miter; stroke-miterlimit: 4; is-custom-font: none; font-file-url: none; fill: rgb(5,58,148); fill-rule: nonzero; opacity: 1;" transform=" translate(-1, -1)" d="m 0 0 h 2 v 2 h -2 z" stroke-linecap="round"/>
</g>
		<g transform="matrix(0.625 0 0 0.625 -335 426.25)">
<path style="stroke: none; stroke-width: 1; stroke-dasharray: none; stroke-linecap: butt; stroke-dashoffset: 0; stroke-linejoin: miter; stroke-miterlimit: 4; is-custom-font: none; font-file-url: none; fill: rgb(5,58,148); fill-rule: nonzero; opacity: 1;" transform=" translate(-1, -1)" d="m 0 0 h 2 v 2 h -2 z" stroke-linecap="round"/>
</g>
		<g transform="matrix(0.625 0 0 0.625 333.75 -108.125)">
<path style="stroke: none; stroke-width: 1; stroke-dasharray: none; stroke-linecap: butt; stroke-dashoffset: 0; stroke-linejoin: miter; stroke-miterlimit: 4; is-custom-font: none; font-file-url: none; fill: rgb(5,58,148); fill-rule: nonzero; opacity: 1;" transform=" translate(-1, -1)" d="m 0 0 l 2 2 h -2 z" stroke-linecap="round"/>
</g>
</g>
</g>
</svg>